<?xml version="1.0" standalone="no"?>
<!DOCTYPE svg PUBLIC "-//W3C//DTD SVG 20010904//EN"
 "http://www.w3.org/TR/2001/REC-SVG-20010904/DTD/svg10.dtd">
<svg version="1.0" xmlns="http://www.w3.org/2000/svg"
 width="700.000000pt" height="700.000000pt" viewBox="0 0 700.000000 700.000000"
 preserveAspectRatio="xMidYMid meet">
<g transform="translate(0.000000,700.000000) scale(0.100000,-0.100000)"
fill="#000000" stroke="none">
<path d="M4125 5339 c-92 -12 -130 -19 -185 -35 -48 -14 -193 -16 -1233 -18
-833 -2 -1181 -6 -1185 -13 -5 -8 -8 -1004 -3 -1045 1 -3 9 -5 18 -3 10 2 21
4 24 4 4 1 26 58 49 129 99 299 188 472 311 606 132 145 299 221 534 243 66 6
885 11 885 5 0 -7 -201 -364 -329 -585 -28 -49 -51 -90 -51 -93 0 -2 -13 -25
-29 -51 -30 -49 -51 -85 -142 -248 -27 -49 -59 -106 -71 -125 -11 -19 -70
-123 -130 -230 -61 -107 -119 -207 -129 -222 -11 -15 -19 -30 -19 -33 0 -3
-35 -68 -79 -143 -43 -75 -87 -153 -98 -172 -43 -76 -402 -707 -421 -740 -11
-19 -29 -51 -40 -70 -11 -20 -84 -148 -162 -285 -79 -138 -152 -266 -162 -285
-11 -19 -28 -48 -38 -65 -18 -30 -23 -56 -21 -107 l1 -28 1104 0 c1046 0 1106
-1 1157 -19 30 -10 77 -22 104 -26 28 -5 57 -10 65 -11 79 -17 509 -23 665
-11 118 10 142 14 256 42 403 100 689 354 781 692 26 98 31 331 9 433 -66 305
-251 520 -636 742 -44 26 -197 104 -340 174 -276 136 -478 242 -483 256 -2 4
-8 8 -13 8 -23 0 -193 137 -261 209 -93 98 -167 237 -184 340 -2 14 -7 37 -10
49 -7 31 -6 169 1 207 24 127 64 205 146 287 123 121 278 173 509 171 269 -4
512 -112 709 -316 136 -140 198 -252 282 -506 51 -154 54 -162 78 -159 l24 3
1 515 c1 283 0 521 -3 528 -3 11 -116 13 -605 10 -330 -1 -623 -5 -651 -9z
m-744 -1411 c87 -130 257 -274 457 -387 50 -29 194 -102 320 -162 337 -162
478 -235 571 -296 46 -30 90 -60 97 -66 7 -7 34 -30 61 -51 110 -91 197 -214
242 -346 23 -67 25 -90 25 -225 0 -138 -2 -156 -27 -228 -62 -177 -180 -299
-358 -370 -123 -49 -313 -51 -525 -3 -156 34 -368 131 -504 230 -79 57 -207
191 -263 274 -119 177 -198 393 -210 572 -10 140 58 301 197 464 53 63 49 65
-20 10 -252 -202 -400 -497 -397 -788 4 -276 127 -518 358 -700 28 -22 54 -43
58 -46 4 -4 -338 -7 -761 -7 l-769 0 52 91 c40 70 227 396 285 496 32 55 81
142 103 180 13 25 152 266 307 535 155 270 291 506 302 525 11 19 70 121 130
225 61 105 122 210 136 235 l25 44 33 -71 c17 -39 51 -100 75 -135z"/>
</g>
</svg>
